<mxfile host="app.diagrams.net" agent="Mozilla/5.0 (Windows NT 10.0; Win64; x64) AppleWebKit/537.36 (KHTML, like Gecko) Chrome/131.0.0.0 Safari/537.36 Edg/131.0.0.0" version="25.0.3">
  <diagram name="Page-1" id="LWKEwxXlh0xFJYuSZQY6">
    <mxGraphModel dx="1379" dy="829" grid="1" gridSize="10" guides="1" tooltips="1" connect="1" arrows="1" fold="1" page="1" pageScale="1" pageWidth="827" pageHeight="1169" math="0" shadow="0">
      <root>
        <mxCell id="0" />
        <mxCell id="1" parent="0" />
        <mxCell id="xqpeyCQ_cKsWzOM3yVpR-3" value="" style="rounded=0;whiteSpace=wrap;html=1;" parent="1" vertex="1">
          <mxGeometry x="280" y="40" width="320" height="680" as="geometry" />
        </mxCell>
        <mxCell id="yKYK6IDrj7jPLCN9uEdS-6" style="rounded=0;orthogonalLoop=1;jettySize=auto;html=1;exitX=1;exitY=0.3333333333333333;exitDx=0;exitDy=0;exitPerimeter=0;endArrow=none;endFill=0;" edge="1" parent="1" source="xqpeyCQ_cKsWzOM3yVpR-4" target="yKYK6IDrj7jPLCN9uEdS-3">
          <mxGeometry relative="1" as="geometry" />
        </mxCell>
        <mxCell id="yKYK6IDrj7jPLCN9uEdS-7" style="edgeStyle=none;shape=connector;rounded=0;orthogonalLoop=1;jettySize=auto;html=1;exitX=1;exitY=0.3333333333333333;exitDx=0;exitDy=0;exitPerimeter=0;entryX=0;entryY=0;entryDx=0;entryDy=0;strokeColor=default;align=center;verticalAlign=middle;fontFamily=Helvetica;fontSize=11;fontColor=default;labelBackgroundColor=default;endArrow=none;endFill=0;" edge="1" parent="1" source="xqpeyCQ_cKsWzOM3yVpR-4" target="yKYK6IDrj7jPLCN9uEdS-4">
          <mxGeometry relative="1" as="geometry" />
        </mxCell>
        <mxCell id="yKYK6IDrj7jPLCN9uEdS-11" style="edgeStyle=none;shape=connector;rounded=0;orthogonalLoop=1;jettySize=auto;html=1;exitX=1;exitY=0.3333333333333333;exitDx=0;exitDy=0;exitPerimeter=0;entryX=0;entryY=1;entryDx=0;entryDy=0;strokeColor=default;align=center;verticalAlign=middle;fontFamily=Helvetica;fontSize=11;fontColor=default;labelBackgroundColor=default;endArrow=none;endFill=0;" edge="1" parent="1" source="xqpeyCQ_cKsWzOM3yVpR-4" target="yKYK6IDrj7jPLCN9uEdS-10">
          <mxGeometry relative="1" as="geometry" />
        </mxCell>
        <mxCell id="xqpeyCQ_cKsWzOM3yVpR-4" value="Mitarbeiter" style="shape=umlActor;verticalLabelPosition=bottom;verticalAlign=top;html=1;outlineConnect=0;" parent="1" vertex="1">
          <mxGeometry x="190" y="265" width="30" height="60" as="geometry" />
        </mxCell>
        <mxCell id="yKYK6IDrj7jPLCN9uEdS-9" style="edgeStyle=none;shape=connector;rounded=0;orthogonalLoop=1;jettySize=auto;html=1;exitX=1;exitY=0.3333333333333333;exitDx=0;exitDy=0;exitPerimeter=0;entryX=0;entryY=0.5;entryDx=0;entryDy=0;strokeColor=default;align=center;verticalAlign=middle;fontFamily=Helvetica;fontSize=11;fontColor=default;labelBackgroundColor=default;endArrow=none;endFill=0;" edge="1" parent="1" source="xqpeyCQ_cKsWzOM3yVpR-5" target="yKYK6IDrj7jPLCN9uEdS-4">
          <mxGeometry relative="1" as="geometry" />
        </mxCell>
        <mxCell id="xqpeyCQ_cKsWzOM3yVpR-5" value="Gutachter" style="shape=umlActor;verticalLabelPosition=bottom;verticalAlign=top;html=1;outlineConnect=0;" parent="1" vertex="1">
          <mxGeometry x="190" y="500" width="30" height="60" as="geometry" />
        </mxCell>
        <mxCell id="e8CXo7FogEoL-1VgWpwn-1" value="&lt;font data-font-src=&quot;https://fonts.googleapis.com/css?family=Roboto&quot; face=&quot;Roboto&quot; style=&quot;font-size: 32px;&quot;&gt;Reparatur&lt;/font&gt;" style="text;html=1;align=center;verticalAlign=middle;whiteSpace=wrap;rounded=0;" parent="1" vertex="1">
          <mxGeometry x="280" y="50" width="320" height="30" as="geometry" />
        </mxCell>
        <mxCell id="yKYK6IDrj7jPLCN9uEdS-14" style="edgeStyle=none;shape=connector;rounded=0;orthogonalLoop=1;jettySize=auto;html=1;exitX=1;exitY=0.3333333333333333;exitDx=0;exitDy=0;exitPerimeter=0;entryX=0;entryY=0.5;entryDx=0;entryDy=0;strokeColor=default;align=center;verticalAlign=middle;fontFamily=Helvetica;fontSize=11;fontColor=default;labelBackgroundColor=default;endArrow=none;endFill=0;" edge="1" parent="1" source="yKYK6IDrj7jPLCN9uEdS-1" target="yKYK6IDrj7jPLCN9uEdS-13">
          <mxGeometry relative="1" as="geometry" />
        </mxCell>
        <mxCell id="yKYK6IDrj7jPLCN9uEdS-15" style="edgeStyle=none;shape=connector;rounded=0;orthogonalLoop=1;jettySize=auto;html=1;exitX=1;exitY=0.3333333333333333;exitDx=0;exitDy=0;exitPerimeter=0;entryX=0;entryY=0.5;entryDx=0;entryDy=0;strokeColor=default;align=center;verticalAlign=middle;fontFamily=Helvetica;fontSize=11;fontColor=default;labelBackgroundColor=default;endArrow=none;endFill=0;" edge="1" parent="1" source="yKYK6IDrj7jPLCN9uEdS-1" target="yKYK6IDrj7jPLCN9uEdS-12">
          <mxGeometry relative="1" as="geometry" />
        </mxCell>
        <mxCell id="yKYK6IDrj7jPLCN9uEdS-1" value="Werkstatt-Mitarbeiter" style="shape=umlActor;verticalLabelPosition=bottom;verticalAlign=top;html=1;outlineConnect=0;" vertex="1" parent="1">
          <mxGeometry x="190" y="620" width="30" height="60" as="geometry" />
        </mxCell>
        <mxCell id="yKYK6IDrj7jPLCN9uEdS-3" value="Reparatur in Auftrag geben" style="ellipse;whiteSpace=wrap;html=1;" vertex="1" parent="1">
          <mxGeometry x="340" y="250" width="140" height="70" as="geometry" />
        </mxCell>
        <mxCell id="yKYK6IDrj7jPLCN9uEdS-4" value="Schaden untersuchen" style="ellipse;whiteSpace=wrap;html=1;" vertex="1" parent="1">
          <mxGeometry x="340" y="455" width="140" height="70" as="geometry" />
        </mxCell>
        <mxCell id="yKYK6IDrj7jPLCN9uEdS-8" style="edgeStyle=none;shape=connector;rounded=0;orthogonalLoop=1;jettySize=auto;html=1;exitX=0;exitY=0.5;exitDx=0;exitDy=0;exitPerimeter=0;strokeColor=default;align=center;verticalAlign=middle;fontFamily=Helvetica;fontSize=11;fontColor=default;labelBackgroundColor=default;endArrow=none;endFill=0;" edge="1" parent="1" source="yKYK6IDrj7jPLCN9uEdS-5">
          <mxGeometry relative="1" as="geometry">
            <mxPoint x="300" y="385" as="targetPoint" />
          </mxGeometry>
        </mxCell>
        <mxCell id="yKYK6IDrj7jPLCN9uEdS-5" value="&amp;lt;&amp;lt;Vorbedingung&amp;gt;&amp;gt;&lt;div&gt;{ist qualifizierter Mitarbeiter}&lt;/div&gt;" style="shape=note;whiteSpace=wrap;html=1;backgroundOutline=1;darkOpacity=0.05;spacingRight=12;" vertex="1" parent="1">
          <mxGeometry x="378" y="345" width="156" height="70" as="geometry" />
        </mxCell>
        <mxCell id="yKYK6IDrj7jPLCN9uEdS-17" style="edgeStyle=none;shape=connector;rounded=0;orthogonalLoop=1;jettySize=auto;html=1;exitX=1;exitY=0.5;exitDx=0;exitDy=0;entryX=0;entryY=0;entryDx=0;entryDy=0;strokeColor=default;align=center;verticalAlign=middle;fontFamily=Helvetica;fontSize=11;fontColor=default;labelBackgroundColor=default;endArrow=classic;endFill=1;dashed=1;" edge="1" parent="1" source="yKYK6IDrj7jPLCN9uEdS-10" target="yKYK6IDrj7jPLCN9uEdS-16">
          <mxGeometry relative="1" as="geometry" />
        </mxCell>
        <mxCell id="yKYK6IDrj7jPLCN9uEdS-18" value="&amp;lt;&amp;lt;Includes&amp;gt;&amp;gt;" style="edgeLabel;html=1;align=center;verticalAlign=middle;resizable=0;points=[];fontFamily=Helvetica;fontSize=11;fontColor=default;labelBackgroundColor=default;" vertex="1" connectable="0" parent="yKYK6IDrj7jPLCN9uEdS-17">
          <mxGeometry x="-0.0034" relative="1" as="geometry">
            <mxPoint as="offset" />
          </mxGeometry>
        </mxCell>
        <mxCell id="yKYK6IDrj7jPLCN9uEdS-10" value="Fahrzeug von Werkstatt zurÃ¼cknehmen" style="ellipse;whiteSpace=wrap;html=1;fontFamily=Helvetica;fontSize=11;fontColor=default;labelBackgroundColor=default;spacing=8;" vertex="1" parent="1">
          <mxGeometry x="290" y="100" width="140" height="70" as="geometry" />
        </mxCell>
        <mxCell id="yKYK6IDrj7jPLCN9uEdS-12" value="Fahrzeug annehmen" style="ellipse;whiteSpace=wrap;html=1;fontFamily=Helvetica;fontSize=11;fontColor=default;labelBackgroundColor=default;" vertex="1" parent="1">
          <mxGeometry x="340" y="540" width="140" height="70" as="geometry" />
        </mxCell>
        <mxCell id="yKYK6IDrj7jPLCN9uEdS-13" value="Fahrzeug reparieren" style="ellipse;whiteSpace=wrap;html=1;fontFamily=Helvetica;fontSize=11;fontColor=default;labelBackgroundColor=default;" vertex="1" parent="1">
          <mxGeometry x="340" y="630" width="140" height="70" as="geometry" />
        </mxCell>
        <mxCell id="yKYK6IDrj7jPLCN9uEdS-16" value="Fahrzeug Stammsatz aktualisieren" style="ellipse;whiteSpace=wrap;html=1;fontFamily=Helvetica;fontSize=11;fontColor=default;labelBackgroundColor=default;spacing=8;" vertex="1" parent="1">
          <mxGeometry x="450" y="180" width="140" height="70" as="geometry" />
        </mxCell>
      </root>
    </mxGraphModel>
  </diagram>
</mxfile>
